<svg id="ロゴ" xmlns="http://www.w3.org/2000/svg" viewBox="0 0 540.08 102.81"><defs><style>.cls-1{fill:#2da6d2;}</style></defs><title>更新版　Primedriveロゴタイプ青</title><path class="cls-1" d="M389.62,373.31a14.35,14.35,0,0,0-3.33-6.5,20.14,20.14,0,0,0-7.66-5.23c-3.48-1.49-7.89-2.11-13.35-2.12s-9.88.63-13.37,2.12a20.89,20.89,0,0,0-7.69,5.2,14,14,0,0,0-3.42,6.53,24.76,24.76,0,0,0-.57,4.63v83h16.35V426.53a2.53,2.53,0,0,1,.44-1.61,6.92,6.92,0,0,1,1.57-1.48,7.57,7.57,0,0,1,2.21-1l.15,0,.13-.05c1.37-.51,2.83-1,4.38-1.54l4.28-1.45c1.53-.53,2.94-1,4.25-1.44l.2-.07.13-.06h0l.37-.11c5.29-1.58,9.37-3.93,11.91-7.38a17.43,17.43,0,0,0,3.59-10.47V377.94A25.53,25.53,0,0,0,389.62,373.31Zm-15.78,24.6a7.16,7.16,0,0,1-.7,2.76c-.17.44-.87,1.2-2.8,1.88-.5.19-.94.35-1.42.51l-1.57.52c-1.09.37-2.3.79-3.63,1.28s-2.57.92-3.86,1.35-2.24.77-3.29,1.15V380.17a8.6,8.6,0,0,1,.27-1.95,3.52,3.52,0,0,1,.91-1.56,6.16,6.16,0,0,1,2.38-1.49,13.13,13.13,0,0,1,4.7-.68h.06a15.23,15.23,0,0,1,5.12.68,8.15,8.15,0,0,1,2.62,1.5,3.18,3.18,0,0,1,.93,1.39,6.76,6.76,0,0,1,.29,1.85Z" transform="translate(-340.22 -359.46)"/><path class="cls-1" d="M429.12,386.17h-.76c-1.05.05-2.31.07-3.77.07-5.46,0-9.88.64-13.36,2.11a20.35,20.35,0,0,0-7.66,5.24,14.45,14.45,0,0,0-3.33,6.5,25.48,25.48,0,0,0-.56,4.64v56.17H416V407a9,9,0,0,1,.25-1.95,3.2,3.2,0,0,1,.88-1.45,7.15,7.15,0,0,1,2.48-1.56,12.46,12.46,0,0,1,4.7-.72c1,0,1.87,0,2.66-.07.62,0,1.45-.06,2.46-.06h2l3.73-14.33-2.87-.41A22,22,0,0,0,429.12,386.17Z" transform="translate(-340.22 -359.46)"/><rect class="cls-1" x="104.74" y="27.71" width="16.22" height="73.74"/><rect class="cls-1" x="104.74" y="1.18" width="16.22" height="18.45"/><path class="cls-1" d="M556.17,400a14.4,14.4,0,0,0-3.33-6.5,20.27,20.27,0,0,0-7.66-5.24c-3.48-1.48-7.9-2.1-13.36-2.11a37.89,37.89,0,0,0-11.08,1.36A27.46,27.46,0,0,0,515,390a27.23,27.23,0,0,0-5.73-2.47,37.82,37.82,0,0,0-11.07-1.36c-5.47,0-9.88.63-13.37,2.11a20.27,20.27,0,0,0-7.66,5.24,14.37,14.37,0,0,0-3.32,6.42,24.58,24.58,0,0,0-.58,4.71v56.31H489.5V406.44a6.79,6.79,0,0,1,.29-1.72,3.09,3.09,0,0,1,.94-1.38,7.68,7.68,0,0,1,2.66-1.5,15.33,15.33,0,0,1,5.08-.69,13.91,13.91,0,0,1,4.89.68,6.07,6.07,0,0,1,2.3,1.41,3.43,3.43,0,0,1,.85,1.5,8.07,8.07,0,0,1,.26,2v54.21h16.35V406.44a5.93,5.93,0,0,1,.29-1.71,3.09,3.09,0,0,1,.94-1.39,7.85,7.85,0,0,1,2.66-1.5,15.31,15.31,0,0,1,5.07-.69,13.89,13.89,0,0,1,4.9.68,6.13,6.13,0,0,1,2.31,1.41,3.65,3.65,0,0,1,.85,1.5,9.19,9.19,0,0,1,.25,2v54.21h16.35V404.6A25.43,25.43,0,0,0,556.17,400Z" transform="translate(-340.22 -359.46)"/><path class="cls-1" d="M587,430.25a5.92,5.92,0,0,1,4.26-1.78h10a14.51,14.51,0,0,0,4.31-.64,28.83,28.83,0,0,0,3.54-1.27,12.34,12.34,0,0,0,4.18-3,17.54,17.54,0,0,0,4.56-6.9,19.46,19.46,0,0,0,1-5.75V404.6a25.49,25.49,0,0,0-.56-4.63,14.32,14.32,0,0,0-3.34-6.5,20.31,20.31,0,0,0-7.65-5.24c-3.49-1.47-7.9-2.11-13.36-2.11s-9.88.63-13.36,2.11a20.27,20.27,0,0,0-7.66,5.24,14.27,14.27,0,0,0-3.33,6.43,25.2,25.2,0,0,0-.57,4.7v38.83c0,.21,0,.38,0,.51a15.3,15.3,0,0,0,2.7,8.89,21.76,21.76,0,0,0,3,3.33,17.6,17.6,0,0,0,4.67,3,30.38,30.38,0,0,0,6.23,2,39.2,39.2,0,0,0,8.31.78,37.75,37.75,0,0,0,10.72-1.28,24.2,24.2,0,0,0,6.92-3.13,16.75,16.75,0,0,0,5.49-6.21,17,17,0,0,0,1.78-7.72v-5.75H602.47v2.59a9,9,0,0,1-.51,3.07,4.26,4.26,0,0,1-1.5,2,18.74,18.74,0,0,1-2.07.87,13.78,13.78,0,0,1-4.49.56,17,17,0,0,1-3.67-.32,10.58,10.58,0,0,1-2.13-.71l-.09-.05-.11,0a3.62,3.62,0,0,1-1.1-.6,4.74,4.74,0,0,1-.76-1l0-.07,0,0a6.61,6.61,0,0,1-.78-3.59v-5.91A5.6,5.6,0,0,1,587,430.25Zm-1.82-23.81a6.47,6.47,0,0,1,.3-1.72,3.07,3.07,0,0,1,.93-1.39,7.68,7.68,0,0,1,2.67-1.48,15,15,0,0,1,5.07-.7h.06a13.45,13.45,0,0,1,4.7.67,6.64,6.64,0,0,1,2.42,1.48,3.23,3.23,0,0,1,.87,1.44,8.6,8.6,0,0,1,.26,2v2.37A4.38,4.38,0,0,1,601,412.4a4.71,4.71,0,0,1-3.45,1.43h-7.48A20.2,20.2,0,0,0,588,414a14.32,14.32,0,0,0-2.77.61Z" transform="translate(-340.22 -359.46)"/><path class="cls-1" d="M682.68,377.94a18,18,0,0,0-1.07-6,17.55,17.55,0,0,0-3.23-5.62,16.89,16.89,0,0,0-5.41-4.19,17.18,17.18,0,0,0-7.72-1.65H632.84v100.4h32.41a17.06,17.06,0,0,0,7.72-1.66,16.86,16.86,0,0,0,5.41-4.18,17.88,17.88,0,0,0,3.24-5.62,18.22,18.22,0,0,0,1.06-6v-3.41h0V377.94Zm-16.22,63.43a5.32,5.32,0,0,1-1.38,3.73,4.29,4.29,0,0,1-3.51,1.43H649.19V374.89h12.38a4.31,4.31,0,0,1,3.51,1.42,5.55,5.55,0,0,1,1.38,3.86Z" transform="translate(-340.22 -359.46)"/><path class="cls-1" d="M725.06,386.17h-.76c-1,.05-2.3.07-3.76.07-5.47,0-9.88.64-13.36,2.11a20.27,20.27,0,0,0-7.66,5.24,14.3,14.3,0,0,0-3.33,6.5,24.76,24.76,0,0,0-.57,4.63v56.18H712V407a8.45,8.45,0,0,1,.25-1.95,3.25,3.25,0,0,1,.88-1.45,7.34,7.34,0,0,1,2.47-1.56,12.46,12.46,0,0,1,4.7-.72c1,0,1.88,0,2.67-.07.61,0,1.44-.06,2.46-.06h2l3.73-14.34-2.88-.4A21.92,21.92,0,0,0,725.06,386.17Z" transform="translate(-340.22 -359.46)"/><rect class="cls-1" x="399.78" y="27.71" width="16.21" height="73.74"/><rect class="cls-1" x="399.78" y="1.18" width="16.21" height="18.44"/><path class="cls-1" d="M848.5,430.25a5.92,5.92,0,0,1,4.26-1.78h10a14.89,14.89,0,0,0,4.31-.64,28.94,28.94,0,0,0,3.53-1.28,12,12,0,0,0,4.18-3,17.5,17.5,0,0,0,4.57-6.9,19.69,19.69,0,0,0,1-5.75V404.6a26.35,26.35,0,0,0-.57-4.63,14.26,14.26,0,0,0-3.33-6.5,20.31,20.31,0,0,0-7.65-5.24c-3.49-1.48-7.91-2.1-13.37-2.12s-9.87.64-13.36,2.12a20.45,20.45,0,0,0-7.66,5.23,14.45,14.45,0,0,0-3.32,6.43,24.57,24.57,0,0,0-.57,4.71v38.76c0,.21,0,.41,0,.58a15.3,15.3,0,0,0,2.7,8.89,21.6,21.6,0,0,0,3,3.32,17.93,17.93,0,0,0,4.68,3,30.48,30.48,0,0,0,6.24,2,39.17,39.17,0,0,0,8.3.78,37.83,37.83,0,0,0,10.73-1.28,24.6,24.6,0,0,0,6.92-3.12,16.5,16.5,0,0,0,7.27-13.94v-5.75H864v2.59a9.38,9.38,0,0,1-.51,3.08,4.28,4.28,0,0,1-1.5,2,19.84,19.84,0,0,1-2.07.87,13.85,13.85,0,0,1-4.5.56,16.17,16.17,0,0,1-3.66-.32,11,11,0,0,1-2.14-.71l-.11-.06-.08,0a4,4,0,0,1-1.1-.6,5.19,5.19,0,0,1-.77-1.05l0,0,0-.06a6.79,6.79,0,0,1-.77-3.6v-5.9A5.59,5.59,0,0,1,848.5,430.25Zm-1.82-23.81a6.66,6.66,0,0,1,.29-1.71,3.13,3.13,0,0,1,.94-1.4,7.83,7.83,0,0,1,2.67-1.49,14.9,14.9,0,0,1,5-.69h.06a13.47,13.47,0,0,1,4.76.68,6.5,6.5,0,0,1,2.41,1.47,3.23,3.23,0,0,1,.88,1.44,8.67,8.67,0,0,1,.26,2v2.37a4.35,4.35,0,0,1-1.45,3.32,4.64,4.64,0,0,1-3.45,1.44h-7.48a20.2,20.2,0,0,0-2.13.14,14.9,14.9,0,0,0-2.77.6v-8.13Z" transform="translate(-340.22 -359.46)"/><path class="cls-1" d="M793.27,462.27a11.77,11.77,0,0,1-6.19-2.12l-15.21-11.78a8,8,0,0,1-2.73-5.57V391l0-3.45h16.23v47.28a8,8,0,0,0,2.73,5.57l3.26,2.52a4.69,4.69,0,0,0,5.46,0l3.25-2.52a8,8,0,0,0,2.74-5.57V391l0-3.45H819V442.8a8,8,0,0,1-2.73,5.57l-15.2,11.78a11.77,11.77,0,0,1-6.19,2.12Z" transform="translate(-340.22 -359.46)"/></svg>